{
    "asset" : {
        "generator" : "Khronos glTF Blender I/O v1.1.46",
        "version" : "2.0"
    },
    "scene" : 0,
    "scenes" : [
        {
            "name" : "Scene",
            "nodes" : [
                0
            ]
        }
    ],
    "nodes" : [
        {
            "mesh" : 0,
            "name" : "hakoneko",
            "scale" : [
                0.9865841269493103,
                0.9865841269493103,
                0.9865841269493103
            ],
            "translation" : [
                0,
                0.0013920217752456665,
                0.0032496377825737
            ]
        }
    ],
    "materials" : [
        {
            "doubleSided" : true,
            "emissiveFactor" : [
                0,
                0,
                0
            ],
            "name" : "white",
            "pbrMetallicRoughness" : {
                "baseColorFactor" : [
                    1,
                    1,
                    1,
                    1
                ],
                "metallicFactor" : 0,
                "roughnessFactor" : 0.6000000238418579
            }
        },
        {
            "doubleSided" : true,
            "emissiveFactor" : [
                0,
                0,
                0
            ],
            "name" : "navy",
            "pbrMetallicRoughness" : {
                "baseColorFactor" : [
                    0.013702086172997952,
                    0.0284260381013155,
                    0.054480284452438354,
                    1
                ],
                "metallicFactor" : 0,
                "roughnessFactor" : 0.6000000238418579
            }
        }
    ],
    "meshes" : [
        {
            "name" : "Sphere",
            "primitives" : [
                {
                    "attributes" : {
                        "POSITION" : 0,
                        "NORMAL" : 1,
                        "TEXCOORD_0" : 2,
                        "COLOR_0" : 3
                    },
                    "indices" : 4,
                    "material" : 0
                },
                {
                    "attributes" : {
                        "POSITION" : 5,
                        "NORMAL" : 6,
                        "TEXCOORD_0" : 7,
                        "COLOR_0" : 8
                    },
                    "indices" : 9,
                    "material" : 1
                }
            ]
        }
    ],
    "accessors" : [
        {
            "bufferView" : 0,
            "componentType" : 5126,
            "count" : 3972,
            "max" : [
                0.05395137891173363,
                0.13898850977420807,
                0.055268872529268265
            ],
            "min" : [
                -0.05395134910941124,
                -0.00025149568682536483,
                -0.05395137891173363
            ],
            "type" : "VEC3"
        },
        {
            "bufferView" : 1,
            "componentType" : 5126,
            "count" : 3972,
            "type" : "VEC3"
        },
        {
            "bufferView" : 2,
            "componentType" : 5126,
            "count" : 3972,
            "type" : "VEC2"
        },
        {
            "bufferView" : 3,
            "componentType" : 5126,
            "count" : 3972,
            "type" : "VEC4"
        },
        {
            "bufferView" : 4,
            "componentType" : 5123,
            "count" : 23808,
            "type" : "SCALAR"
        },
        {
            "bufferView" : 5,
            "componentType" : 5126,
            "count" : 13502,
            "max" : [
                0.03985137492418289,
                0.15055768191814423,
                0.05533723160624504
            ],
            "min" : [
                -0.03985137119889259,
                0.0007342402241192758,
                -0.09099627286195755
            ],
            "type" : "VEC3"
        },
        {
            "bufferView" : 6,
            "componentType" : 5126,
            "count" : 13502,
            "type" : "VEC3"
        },
        {
            "bufferView" : 7,
            "componentType" : 5126,
            "count" : 13502,
            "type" : "VEC2"
        },
        {
            "bufferView" : 8,
            "componentType" : 5126,
            "count" : 13502,
            "type" : "VEC4"
        },
        {
            "bufferView" : 9,
            "componentType" : 5123,
            "count" : 79272,
            "type" : "SCALAR"
        }
    ],
    "bufferViews" : [
        {
            "buffer" : 0,
            "byteLength" : 47664,
            "byteOffset" : 0
        },
        {
            "buffer" : 0,
            "byteLength" : 47664,
            "byteOffset" : 47664
        },
        {
            "buffer" : 0,
            "byteLength" : 31776,
            "byteOffset" : 95328
        },
        {
            "buffer" : 0,
            "byteLength" : 63552,
            "byteOffset" : 127104
        },
        {
            "buffer" : 0,
            "byteLength" : 47616,
            "byteOffset" : 190656
        },
        {
            "buffer" : 0,
            "byteLength" : 162024,
            "byteOffset" : 238272
        },
        {
            "buffer" : 0,
            "byteLength" : 162024,
            "byteOffset" : 400296
        },
        {
            "buffer" : 0,
            "byteLength" : 108016,
            "byteOffset" : 562320
        },
        {
            "buffer" : 0,
            "byteLength" : 216032,
            "byteOffset" : 670336
        },
        {
            "buffer" : 0,
            "byteLength" : 158544,
            "byteOffset" : 886368
        }
    ],
    "buffers" : [
        {
            "byteLength" : 1044912,
            "uri" : "data:application/octet-stream;base64,"
        }
    ]
}
