<svg width="96" height="12" viewBox="0 0 96 12" fill="none" xmlns="http://www.w3.org/2000/svg">
<path d="M0 1.344V0H8V1.344H5.328V12H2.672V1.344H0Z" fill="white"/>
<path d="M14.672 12H12V6.672H10.672V12H8V1.344H9.328V0H13.328V1.344H14.672V12ZM12 5.344V1.344H10.672V5.344H12Z" fill="white"/>
<path d="M18.672 12H16V0H21.328V1.344H22.672V5.344H21.328V6.672H18.672V12ZM20 5.344V1.344H18.672V5.344H20Z" fill="white"/>
<path d="M32 1.344V0H40V1.344H37.328V12H34.672V1.344H32Z" fill="white"/>
<path d="M45.328 12H41.328V10.672H40V1.344H41.328V0H45.328V1.344H46.672V10.672H45.328V12ZM44 10.672V1.344H42.672V10.672H44Z" fill="white"/>
<path d="M56 10.672V9.344H58.672V10.672H60V8H58.672V6.672H57.328V5.344H56V1.344H57.328V0H61.328V1.344H62.672V2.672H60V1.344H58.672V4H60V5.344H61.328V6.672H62.672V10.672H61.328V12H57.328V10.672H56Z" fill="white"/>
<path d="M64 1.344V0H72V1.344H69.328V12H66.672V1.344H64Z" fill="white"/>
<path d="M78.672 12H76V6.672H74.672V12H72V1.344H73.328V0H77.328V1.344H78.672V12ZM76 5.344V1.344H74.672V5.344H76Z" fill="white"/>
<path d="M86.672 12H84V6.672H82.672V12H80V0H85.328V1.344H86.672V5.344H85.328V6.672H86.672V12ZM84 5.344V1.344H82.672V5.344H84Z" fill="white"/>
<path d="M88 1.344V0H96V1.344H93.328V12H90.672V1.344H88Z" fill="white"/>
</svg>
